<svg width="220" height="220" viewBox="0 0 220 220" version="1.1" xmlns="http://www.w3.org/2000/svg" xmlns:xlink="http://www.w3.org/1999/xlink">
<title>git</title>
<desc>Created using Figma</desc>
<g id="Canvas" transform="translate(-4708 -722)">
<g id="git">
<g id="Vector 2">
<use xlink:href="#path0_stroke" transform="translate(4718 732)" fill="#FF4081"/>
</g>
<g id="Vector">
<use xlink:href="#path1_fill" transform="translate(4740 752)" fill="#FF4081"/>
</g>
</g>
</g>
<defs>
<path id="path0_stroke" d="M 0 0L 0 -10L -10 -10L -10 0L 0 0ZM 0 200L -10 200L -10 210L 0 210L 0 200ZM 200 200L 200 210L 210 210L 210 200L 200 200ZM 200 0L 210 0L 210 -10L 200 -10L 200 0ZM -10 0L -10 200L 10 200L 10 0L -10 0ZM 0 210L 200 210L 200 190L 0 190L 0 210ZM 210 200L 210 0L 190 0L 190 200L 210 200ZM 200 -10L 0 -10L 0 10L 200 10L 200 -10Z"/>
<path id="path1_fill" d="M 78.5 175.5L 52.5 175.5L 52.5 159L 46.5 159L 32 159L 0 128L 32 143.5L 46.5 143.5L 52.5 143.5L 52.5 118.5L 60.5 118.5L 60.5 115.5L 14 114.5L 14 21L 25.5 21L 41.5 0L 56.5 21L 78.5 21L 100.5 21L 115.5 0L 131.5 21L 143 21L 143 114.5L 96.5 115.5L 96.5 118.5L 104.5 118.5L 104.5 175.5L 78.5 175.5Z"/>
</defs>
</svg>
