<svg width="220" height="220" viewBox="0 0 220 220" version="1.1" xmlns="http://www.w3.org/2000/svg" xmlns:xlink="http://www.w3.org/1999/xlink">
<title>insta</title>
<desc>Created using Figma</desc>
<g id="Canvas" transform="translate(-4445 -722)">
<g id="insta">
<g id="Vector 2">
<use xlink:href="#path0_stroke" transform="translate(4455 732)" fill="#FF4081"/>
</g>
<g id="Rectangle 12">
<mask id="mask0_outline_ins">
<use xlink:href="#path1_fill" fill="white" transform="translate(4505 782)"/>
</mask>
<g mask="url(#mask0_outline_ins)">
<use xlink:href="#path2_stroke_2x" transform="translate(4505 782)" fill="#FF4081"/>
</g>
</g>
<g id="Rectangle 11">
<use xlink:href="#path3_fill" transform="translate(4598 754)" fill="#FF4081"/>
</g>
</g>
</g>
<defs>
<path id="path0_stroke" d="M 0 0L 0 -10L -10 -10L -10 0L 0 0ZM 0 200L -10 200L -10 210L 0 210L 0 200ZM 200 200L 200 210L 210 210L 210 200L 200 200ZM 200 0L 210 0L 210 -10L 200 -10L 200 0ZM -10 0L -10 200L 10 200L 10 0L -10 0ZM 0 210L 200 210L 200 190L 0 190L 0 210ZM 210 200L 210 0L 190 0L 190 200L 210 200ZM 200 -10L 0 -10L 0 10L 200 10L 200 -10Z"/>
<path id="path1_fill" d="M 0 0L 100 0L 100 100L 0 100L 0 0Z"/>
<path id="path2_stroke_2x" d="M 0 0L 0 -20L -20 -20L -20 0L 0 0ZM 100 0L 120 0L 120 -20L 100 -20L 100 0ZM 100 100L 100 120L 120 120L 120 100L 100 100ZM 0 100L -20 100L -20 120L 0 120L 0 100ZM 0 20L 100 20L 100 -20L 0 -20L 0 20ZM 80 0L 80 100L 120 100L 120 0L 80 0ZM 100 80L 0 80L 0 120L 100 120L 100 80ZM 20 100L 20 0L -20 0L -20 100L 20 100Z"/>
<path id="path3_fill" d="M 0 0L 23 0L 23 23L 0 23L 0 0Z"/>
</defs>
</svg>
