<svg width="102" height="102" viewBox="0 0 102 102" version="1.1" xmlns="http://www.w3.org/2000/svg" xmlns:xlink="http://www.w3.org/1999/xlink">
<title>close-button</title>
<desc>Created using Figma</desc>
<g id="Canvas" transform="translate(-2153 -34)">
<rect x="2153" y="34" width="102" height="102" fill="#E5E5E5"/>
<clipPath id="clip-0" clip-rule="evenodd">
<path d="M 1971 0L 3891 0L 3891 1080L 1971 1080L 1971 0Z" fill="#FFFFFF"/>
</clipPath>
<g id="backdrop" clip-path="url(#clip-0)">
<path d="M 1971 0L 3891 0L 3891 1080L 1971 1080L 1971 0Z" fill="#FFFFFF"/>
<g id="close-button">
<g id="Rectangle 6">
<use xlink:href="#path0_fill" transform="translate(2153 34)" fill="#FFFFFF"/>
<mask id="mask0_outline_ins">
<use xlink:href="#path0_fill" fill="white" transform="translate(2153 34)"/>
</mask>
<g mask="url(#mask0_outline_ins)">
<use xlink:href="#path1_stroke_2x" transform="translate(2153 34)" fill="#FF4081"/>
</g>
</g>
<g id="ignore icon">
<g id="Vector">
<use xlink:href="#path2_stroke" transform="translate(2187 68)" fill="#FF4081"/>
</g>
</g>
</g>
</g>
</g>
<defs>
<path id="path0_fill" d="M 0 0L 101.25 0L 101.25 101.25L 0 101.25L 0 0Z"/>
<path id="path1_stroke_2x" d="M 0 0L 0 -2L -2 -2L -2 0L 0 0ZM 101.25 0L 103.25 0L 103.25 -2L 101.25 -2L 101.25 0ZM 101.25 101.25L 101.25 103.25L 103.25 103.25L 103.25 101.25L 101.25 101.25ZM 0 101.25L -2 101.25L -2 103.25L 0 103.25L 0 101.25ZM 0 2L 101.25 2L 101.25 -2L 0 -2L 0 2ZM 99.25 0L 99.25 101.25L 103.25 101.25L 103.25 0L 99.25 0ZM 101.25 99.25L 0 99.25L 0 103.25L 101.25 103.25L 101.25 99.25ZM 2 101.25L 2 0L -2 0L -2 101.25L 2 101.25Z"/>
<path id="path2_stroke" d="M -4.94975 4.94975L 30.0503 39.9497L 39.9497 30.0503L 4.94975 -4.94975L -4.94975 4.94975ZM 4.94975 39.9497L 39.9497 4.94975L 30.0503 -4.94975L -4.94975 30.0503L 4.94975 39.9497Z"/>
</defs>
</svg>
