<svg width="102" height="102" viewBox="0 0 102 102" version="1.1" xmlns="http://www.w3.org/2000/svg" xmlns:xlink="http://www.w3.org/1999/xlink">
<title>menu-button</title>
<desc>Created using Figma</desc>
<g id="Canvas" transform="translate(-2045 -34)">
<rect x="2045" y="34" width="102" height="102" fill="#E5E5E5"/>
<clipPath id="clip-0" clip-rule="evenodd">
<path d="M 1971 0L 3891 0L 3891 1080L 1971 1080L 1971 0Z" fill="#FFFFFF"/>
</clipPath>
<g id="backdrop" clip-path="url(#clip-0)">
<path d="M 1971 0L 3891 0L 3891 1080L 1971 1080L 1971 0Z" fill="#FFFFFF"/>
<g id="menu-button">
<g id="Rectangle 6">
<use xlink:href="#path0_fill" transform="translate(2045 34)" fill="#FFFFFF"/>
<mask id="mask0_outline_ins">
<use xlink:href="#path0_fill" fill="white" transform="translate(2045 34)"/>
</mask>
<g mask="url(#mask0_outline_ins)">
<use xlink:href="#path1_stroke_2x" transform="translate(2045 34)" fill="#FF4081"/>
</g>
</g>
<g id="menu icon">
<g id="Rectangle 7">
<use xlink:href="#path2_fill" transform="translate(2076 65)" fill="#FF4081"/>
</g>
<g id="Rectangle 7">
<use xlink:href="#path2_fill" transform="translate(2089.91 65)" fill="#FF4081"/>
</g>
<g id="Rectangle 7">
<use xlink:href="#path2_fill" transform="translate(2103.83 65)" fill="#FF4081"/>
</g>
<g id="Rectangle 7">
<use xlink:href="#path2_fill" transform="translate(2076 78.913)" fill="#FF4081"/>
</g>
<g id="Rectangle 7">
<use xlink:href="#path2_fill" transform="translate(2089.91 78.913)" fill="#FF4081"/>
</g>
<g id="Rectangle 7">
<use xlink:href="#path2_fill" transform="translate(2103.83 78.913)" fill="#FF4081"/>
</g>
<g id="Rectangle 7">
<use xlink:href="#path3_fill" transform="translate(2076 92.8261)" fill="#FF4081"/>
</g>
<g id="Rectangle 7">
<use xlink:href="#path3_fill" transform="translate(2090 92.8261)" fill="#FF4081"/>
</g>
<g id="Rectangle 7">
<use xlink:href="#path3_fill" transform="translate(2104 92.8261)" fill="#FF4081"/>
</g>
</g>
</g>
</g>
</g>
<defs>
<path id="path0_fill" d="M 0 0L 101.25 0L 101.25 101.25L 0 101.25L 0 0Z"/>
<path id="path1_stroke_2x" d="M 0 0L 0 -2L -2 -2L -2 0L 0 0ZM 101.25 0L 103.25 0L 103.25 -2L 101.25 -2L 101.25 0ZM 101.25 101.25L 101.25 103.25L 103.25 103.25L 103.25 101.25L 101.25 101.25ZM 0 101.25L -2 101.25L -2 103.25L 0 103.25L 0 101.25ZM 0 2L 101.25 2L 101.25 -2L 0 -2L 0 2ZM 99.25 0L 99.25 101.25L 103.25 101.25L 103.25 0L 99.25 0ZM 101.25 99.25L 0 99.25L 0 103.25L 101.25 103.25L 101.25 99.25ZM 2 101.25L 2 0L -2 0L -2 101.25L 2 101.25Z"/>
<path id="path2_fill" d="M 0 0L 12.1739 0L 12.1739 12.1739L 0 12.1739L 0 0Z"/>
<path id="path3_fill" d="M 0 0L 12 0L 12 12.1739L 0 12.1739L 0 0Z"/>
</defs>
</svg>
