<svg width="114" height="114" viewBox="0 0 114 114" version="1.1" xmlns="http://www.w3.org/2000/svg" xmlns:xlink="http://www.w3.org/1999/xlink">
<title>menu button</title>
<desc>Created using Figma</desc>
<g id="Canvas" transform="translate(-2004 -33)">
<rect x="2004" y="33" width="114" height="114" fill="#E5E5E5"/>
<clipPath id="clip-0" clip-rule="evenodd">
<path d="M 1971 0L 3891 0L 3891 1080L 1971 1080L 1971 0Z" fill="#FFFFFF"/>
</clipPath>
<g id="backdrop" clip-path="url(#clip-0)">
<path d="M 1971 0L 3891 0L 3891 1080L 1971 1080L 1971 0Z" fill="#FFFFFF"/>
<g id="menu button">
<g id="Rectangle 6" filter="url(#filter0_d)">
<use xlink:href="#path0_fill" transform="translate(2005 34)" fill="#FFFFFF"/>
<use xlink:href="#path1_stroke" transform="translate(2005 34)" fill="#FF4081"/>
</g>
<g id="menu icon">
<g id="Rectangle 7">
<use xlink:href="#path2_fill" transform="translate(2036 65)" fill="#FF4081"/>
</g>
<g id="Rectangle 7">
<use xlink:href="#path2_fill" transform="translate(2049.91 65)" fill="#FF4081"/>
</g>
<g id="Rectangle 7">
<use xlink:href="#path2_fill" transform="translate(2063.83 65)" fill="#FF4081"/>
</g>
<g id="Rectangle 7">
<use xlink:href="#path2_fill" transform="translate(2036 78.913)" fill="#FF4081"/>
</g>
<g id="Rectangle 7">
<use xlink:href="#path2_fill" transform="translate(2049.91 78.913)" fill="#FF4081"/>
</g>
<g id="Rectangle 7">
<use xlink:href="#path2_fill" transform="translate(2063.83 78.913)" fill="#FF4081"/>
</g>
<g id="Rectangle 7">
<use xlink:href="#path3_fill" transform="translate(2036 92.8261)" fill="#FF4081"/>
</g>
<g id="Rectangle 7">
<use xlink:href="#path3_fill" transform="translate(2050 92.8261)" fill="#FF4081"/>
</g>
<g id="Rectangle 7">
<use xlink:href="#path3_fill" transform="translate(2064 92.8261)" fill="#FF4081"/>
</g>
</g>
</g>
</g>
</g>
<defs>
<filter id="filter0_d" filterUnits="userSpaceOnUse" x="2004" y="33" width="114" height="114" color-interpolation-filters="sRGB">
<feFlood flood-opacity="0" result="BackgroundImageFix"/>
<feColorMatrix in="SourceAlpha" type="matrix" values="0 0 0 0 0 0 0 0 0 0 0 0 0 0 0 0 0 0 255 0"/>
<feOffset dx="10" dy="10"/>
<feColorMatrix type="matrix" values="0 0 0 0 1 0 0 0 0 0.25098 0 0 0 0 0.505882 0 0 0 1 0"/>
<feBlend mode="normal" in2="BackgroundImageFix" result="effect1_dropShadow"/>
<feBlend mode="normal" in="SourceGraphic" in2="effect1_dropShadow" result="shape"/>
</filter>
<path id="path0_fill" d="M 0 0L 101.25 0L 101.25 101.25L 0 101.25L 0 0Z"/>
<path id="path1_stroke" d="M 0 0L 0 -1L -1 -1L -1 0L 0 0ZM 101.25 0L 102.25 0L 102.25 -1L 101.25 -1L 101.25 0ZM 101.25 101.25L 101.25 102.25L 102.25 102.25L 102.25 101.25L 101.25 101.25ZM 0 101.25L -1 101.25L -1 102.25L 0 102.25L 0 101.25ZM 0 1L 101.25 1L 101.25 -1L 0 -1L 0 1ZM 100.25 0L 100.25 101.25L 102.25 101.25L 102.25 0L 100.25 0ZM 101.25 100.25L 0 100.25L 0 102.25L 101.25 102.25L 101.25 100.25ZM 1 101.25L 1 0L -1 0L -1 101.25L 1 101.25Z"/>
<path id="path2_fill" d="M 0 0L 12.1739 0L 12.1739 12.1739L 0 12.1739L 0 0Z"/>
<path id="path3_fill" d="M 0 0L 12 0L 12 12.1739L 0 12.1739L 0 0Z"/>
</defs>
</svg>
