<svg width="1437" height="450" viewBox="0 0 1437 450" version="1.1" xmlns="http://www.w3.org/2000/svg" xmlns:xlink="http://www.w3.org/1999/xlink">
<title>title</title>
<desc>Created using Figma</desc>
<g id="Canvas" transform="translate(-2140 -326)">
<rect x="2140" y="326" width="1437" height="450" fill="#E5E5E5"/>
<clipPath id="clip-0" clip-rule="evenodd">
<path d="M 1971 0L 3891 0L 3891 1080L 1971 1080L 1971 0Z" fill="#FFFFFF"/>
</clipPath>
<g id="backdrop" clip-path="url(#clip-0)">
<path d="M 1971 0L 3891 0L 3891 1080L 1971 1080L 1971 0Z" fill="#FFFFFF"/>
<g id="title">
<g id="Rectangle 8">
<use xlink:href="#path0_fill" transform="translate(2140 568)" fill="#FF4081"/>
</g>
<g id="Rectangle 8">
<use xlink:href="#path1_fill" transform="translate(2140 688)" fill="#FF4081"/>
</g>
<g id="Mark Emery">
<use xlink:href="#path2_fill" transform="translate(2160 303)"/>
</g>
<g id="Computer Engineering Student University of Waterloo">
<use xlink:href="#path3_fill" transform="translate(2165 513)"/>
</g>
</g>
</g>
</g>
<defs>
<path id="path0_fill" d="M 0 0L 1437 0L 1437 88L 0 88L 0 0Z"/>
<path id="path1_fill" d="M 0 0L 1039 0L 1039 88L 0 88L 0 0Z"/>
<path id="path2_fill" d="M 9.80781 166L 41.6078 166L 41.6078 94.2C 41.6078 88.4 41.0078 65.4 41.0078 65.4L 41.4078 65.4C 41.4078 65.4 46.4078 87 48.0078 92.2L 68.4078 166L 97.6078 166L 118.208 92C 119.808 86.8 124.808 65.4 124.808 65.4L 125.208 65.4C 125.208 65.4 124.608 88.2 124.608 94L 124.608 166L 157.008 166L 157.008 23L 109.008 23L 91.4078 85.6C 89.0078 94.6 83.4078 118.2 83.4078 118.2L 83.0078 118.2C 83.0078 118.2 77.4078 94.6 74.8078 85.6L 57.4078 23L 9.80781 23L 9.80781 166ZM 204.805 168.6C 220.205 168.6 229.205 163.2 235.205 154.6L 235.605 154.6C 236.405 159.8 237.405 163.8 239.005 166L 270.605 166L 270.605 164.6C 267.805 162.8 267.005 158.2 267.005 150L 267.005 98.4C 267.005 85.6 262.805 75.6 254.005 69.2C 246.605 63.6 236.205 60.8 220.805 60.8C 189.805 60.8 175.205 77 174.405 96L 204.405 96C 205.405 87.4 210.605 82.8 221.005 82.8C 230.805 82.8 235.005 87.2 235.005 93.8C 235.005 100.8 228.205 102.8 209.005 105.2C 187.805 108 169.805 114.8 169.805 137.4C 169.805 157.6 184.405 168.6 204.805 168.6ZM 215.205 147.8C 207.205 147.8 201.205 144.6 201.205 136.4C 201.205 128.6 206.405 125.4 219.005 122.6C 225.605 121 231.605 119.4 235.805 117.2L 235.805 129.4C 235.805 140.4 227.405 147.8 215.205 147.8ZM 282.808 166L 315.408 166L 315.408 120C 315.408 97.8 328.208 88 348.208 90.8L 349.008 90.8L 349.008 62.8C 347.608 62.2 345.608 62 342.608 62C 330.208 62 321.808 67.4 314.608 79.6L 314.008 79.6L 314.008 63.6L 282.808 63.6L 282.808 166ZM 359.37 166L 391.57 166L 391.57 134.6L 401.37 124.2L 425.97 166L 463.77 166L 423.57 102L 459.57 63.6L 421.97 63.6L 391.57 98.2L 391.57 23L 359.37 23L 359.37 166ZM 498.089 166L 607.689 166L 607.689 136L 533.489 136L 533.489 105.4L 596.089 105.4L 596.089 77.8L 533.489 77.8L 533.489 52.2L 606.489 52.2L 606.489 23L 498.089 23L 498.089 166ZM 621.675 166L 654.275 166L 654.275 108.6C 654.275 96.4 660.275 87.8 670.475 87.8C 680.275 87.8 684.875 94.2 684.875 105.2L 684.875 166L 717.475 166L 717.475 108.6C 717.475 96.4 723.275 87.8 733.675 87.8C 743.475 87.8 748.075 94.2 748.075 105.2L 748.075 166L 780.675 166L 780.675 99.4C 780.675 76.4 769.075 60.6 745.875 60.6C 732.675 60.6 721.675 66.2 713.675 78.6L 713.275 78.6C 708.075 67.6 697.875 60.6 684.475 60.6C 669.675 60.6 659.875 67.6 653.475 78.2L 652.875 78.2L 652.875 63.6L 621.675 63.6L 621.675 166ZM 845.503 169C 858.503 169 868.903 165.6 877.503 159.6C 886.503 153.4 892.503 144.6 894.703 135.4L 862.903 135.4C 860.103 141.8 854.503 145.6 845.903 145.6C 832.503 145.6 824.903 137 822.903 123.2L 896.503 123.2C 896.703 102.4 890.703 84.6 878.503 73.4C 869.703 65.4 858.103 60.6 843.503 60.6C 812.303 60.6 790.903 84 790.903 114.6C 790.903 145.6 811.703 169 845.503 169ZM 823.103 103.8C 825.303 91.6 831.703 83.8 844.103 83.8C 854.703 83.8 862.303 91.6 863.503 103.8L 823.103 103.8ZM 907.417 166L 940.017 166L 940.017 120C 940.017 97.8 952.817 88 972.817 90.8L 973.617 90.8L 973.617 62.8C 972.217 62.2 970.217 62 967.217 62C 954.817 62 946.417 67.4 939.217 79.6L 938.617 79.6L 938.617 63.6L 907.417 63.6L 907.417 166ZM 989.333 199.8L 1010.53 199.8C 1031.13 199.8 1040.93 191.4 1049.13 167.4L 1084.53 63.6L 1051.93 63.6L 1038.53 107.2C 1035.33 117.2 1032.53 130.8 1032.53 130.8L 1032.13 130.8C 1032.13 130.8 1028.93 117.2 1025.73 107.2L 1011.93 63.6L 977.533 63.6L 1007.73 142.4C 1011.93 153.2 1013.93 159.2 1013.93 163.6C 1013.93 170.6 1010.13 174.4 1000.53 174.4L 989.333 174.4L 989.333 199.8Z"/>
<path id="path3_fill" d="M 36.8 84.5C 46.7 84.5 53.6 81.5 58.5 76.9C 63.3 72.4 66 66.3 66.4 60L 52.2 60C 51.3 67.5 45.3 72.6 36.8 72.6C 24.8 72.6 17.2 62.1 17.2 47.5C 17.2 33.3 23.5 22.3 36.7 22.3C 45.1 22.3 50.5 27 51.8 34.2L 66.2 34.2C 64.7 20.6 54.3 10.1 36.7 10.1C 15.6 10.1 2.4 26.3 2.4 47.5C 2.4 69 16.7 84.5 36.8 84.5ZM 97.5477 84.5C 113.448 84.5 124.348 72.7 124.348 57.4C 124.348 42.1 113.448 30.3 97.5477 30.3C 81.6477 30.3 70.7477 42.1 70.7477 57.4C 70.7477 72.7 81.6477 84.5 97.5477 84.5ZM 97.5477 74.1C 89.1477 74.1 84.5477 67.4 84.5477 57.4C 84.5477 47.4 89.1477 40.6 97.5477 40.6C 105.848 40.6 110.548 47.4 110.548 57.4C 110.548 67.4 105.848 74.1 97.5477 74.1ZM 130.67 83L 144.27 83L 144.27 53.2C 144.27 46.4 147.97 42 153.47 42C 158.47 42 161.37 45 161.37 50.8L 161.37 83L 174.97 83L 174.97 53.2C 174.97 46.4 178.47 42 184.17 42C 189.17 42 192.07 45 192.07 50.8L 192.07 83L 205.67 83L 205.67 48.5C 205.67 37.3 199.57 30.3 188.77 30.3C 182.27 30.3 176.87 33.7 173.37 39.3L 173.17 39.3C 170.67 33.9 165.47 30.3 158.97 30.3C 151.87 30.3 146.87 33.9 144.07 38.6L 143.77 38.6L 143.77 31.7L 130.67 31.7L 130.67 83ZM 214.068 99.8L 227.668 99.8L 227.668 77.2L 227.868 77.2C 230.768 81.6 235.468 84.5 242.668 84.5C 255.868 84.5 264.868 74 264.868 57.4C 264.868 41.4 256.168 30.3 242.568 30.3C 235.568 30.3 230.768 33.6 227.468 38.1L 227.168 38.1L 227.168 31.7L 214.068 31.7L 214.068 99.8ZM 239.768 73.2C 231.668 73.2 227.368 67.1 227.368 57.8C 227.368 48.6 230.768 41.3 239.268 41.3C 247.668 41.3 251.068 48.1 251.068 57.8C 251.068 67.5 246.668 73.2 239.768 73.2ZM 316.697 83L 316.697 31.7L 303.097 31.7L 303.097 61.3C 303.097 68.1 299.197 72.9 292.797 72.9C 286.997 72.9 284.297 69.6 284.297 63.6L 284.297 31.7L 270.797 31.7L 270.797 65.9C 270.797 77.1 277.197 84.4 288.597 84.4C 295.797 84.4 299.797 81.7 303.297 77L 303.597 77L 303.597 83L 316.697 83ZM 322.494 40.7L 329.594 40.7L 329.594 70.8C 329.594 80.5 336.894 83.1 343.494 83.1C 348.894 83.1 351.994 82.9 351.994 82.9L 351.994 72.9C 351.994 72.9 349.694 73 347.994 73C 344.994 73 342.894 71.7 342.894 67.9L 342.894 40.7L 351.694 40.7L 351.694 31.7L 342.894 31.7L 342.894 15.7L 329.594 15.7L 329.594 31.7L 322.494 31.7L 322.494 40.7ZM 382.309 84.5C 395.509 84.5 403.609 76.8 405.509 67.7L 392.109 67.7C 390.609 71.6 387.509 74 382.209 74C 374.509 74 370.109 69.1 369.109 61.2L 406.309 61.2C 406.309 42.9 397.509 30.3 381.009 30.3C 366.009 30.3 355.709 42.1 355.709 57.3C 355.709 72.6 365.309 84.5 382.309 84.5ZM 381.209 40.8C 387.409 40.8 391.709 45.3 392.109 51.8L 369.309 51.8C 370.509 45.1 374.009 40.8 381.209 40.8ZM 425.703 31.7L 412.603 31.7L 412.603 83L 426.203 83L 426.203 58C 426.203 47.2 432.603 42.5 441.503 43.4L 441.803 43.4L 441.803 31.5C 441.003 31.2 440.103 31.1 438.603 31.1C 432.603 31.1 429.103 34.1 426.003 39.9L 425.703 39.9L 425.703 31.7ZM 460.773 83L 513.673 83L 513.673 70.9L 475.273 70.9L 475.273 51.6L 508.673 51.6L 508.673 39.7L 475.273 39.7L 475.273 23.7L 513.373 23.7L 513.373 11.5L 460.773 11.5L 460.773 83ZM 534.888 31.7L 521.587 31.7L 521.587 83L 535.188 83L 535.188 53.9C 535.188 46.9 539.587 42.1 545.587 42.1C 551.288 42.1 554.487 46 554.487 51.5L 554.487 83L 568.087 83L 568.087 49.5C 568.087 38.3 560.988 30.3 550.388 30.3C 543.388 30.3 538.688 33.2 535.188 38.7L 534.888 38.7L 534.888 31.7ZM 599.07 100.5C 606.67 100.5 613.27 98.7 617.57 94.7C 621.37 91.2 623.67 86.3 623.67 79.1L 623.67 31.7L 610.57 31.7L 610.57 37.1L 610.37 37.1C 607.27 32.8 602.57 30.3 596.17 30.3C 583.17 30.3 573.97 40.1 573.97 55.4C 573.97 70.9 585.17 79.9 596.57 79.9C 603.07 79.9 606.97 77.3 609.97 73.9L 610.27 73.9L 610.27 79.5C 610.27 86.5 606.57 90.2 598.87 90.2C 592.57 90.2 589.67 87.7 588.57 84.5L 575.07 84.5C 576.47 94.5 585.07 100.5 599.07 100.5ZM 598.87 69C 591.87 69 587.27 63.9 587.27 55.2C 587.27 46.6 591.87 41.2 598.77 41.2C 606.97 41.2 610.97 47.6 610.97 55.1C 610.97 62.7 607.47 69 598.87 69ZM 632.427 83L 646.027 83L 646.027 31.7L 632.427 31.7L 632.427 83ZM 632.427 23.7L 646.027 23.7L 646.027 11.5L 632.427 11.5L 632.427 23.7ZM 668.091 31.7L 654.791 31.7L 654.791 83L 668.391 83L 668.391 53.9C 668.391 46.9 672.791 42.1 678.791 42.1C 684.491 42.1 687.691 46 687.691 51.5L 687.691 83L 701.291 83L 701.291 49.5C 701.291 38.3 694.191 30.3 683.591 30.3C 676.591 30.3 671.891 33.2 668.391 38.7L 668.091 38.7L 668.091 31.7ZM 733.773 84.5C 746.973 84.5 755.073 76.8 756.973 67.7L 743.573 67.7C 742.073 71.6 738.973 74 733.673 74C 725.973 74 721.573 69.1 720.573 61.2L 757.773 61.2C 757.773 42.9 748.973 30.3 732.473 30.3C 717.473 30.3 707.173 42.1 707.173 57.3C 707.173 72.6 716.773 84.5 733.773 84.5ZM 732.673 40.8C 738.873 40.8 743.173 45.3 743.573 51.8L 720.773 51.8C 721.973 45.1 725.473 40.8 732.673 40.8ZM 788.168 84.5C 801.368 84.5 809.468 76.8 811.368 67.7L 797.968 67.7C 796.468 71.6 793.368 74 788.068 74C 780.368 74 775.968 69.1 774.968 61.2L 812.168 61.2C 812.168 42.9 803.368 30.3 786.868 30.3C 771.868 30.3 761.568 42.1 761.568 57.3C 761.568 72.6 771.168 84.5 788.168 84.5ZM 787.068 40.8C 793.268 40.8 797.568 45.3 797.968 51.8L 775.168 51.8C 776.368 45.1 779.868 40.8 787.068 40.8ZM 831.562 31.7L 818.462 31.7L 818.462 83L 832.062 83L 832.062 58C 832.062 47.2 838.462 42.5 847.362 43.4L 847.663 43.4L 847.663 31.5C 846.863 31.2 845.962 31.1 844.462 31.1C 838.462 31.1 834.962 34.1 831.862 39.9L 831.562 39.9L 831.562 31.7ZM 853.521 83L 867.121 83L 867.121 31.7L 853.521 31.7L 853.521 83ZM 853.521 23.7L 867.121 23.7L 867.121 11.5L 853.521 11.5L 853.521 23.7ZM 889.184 31.7L 875.884 31.7L 875.884 83L 889.484 83L 889.484 53.9C 889.484 46.9 893.884 42.1 899.884 42.1C 905.584 42.1 908.784 46 908.784 51.5L 908.784 83L 922.384 83L 922.384 49.5C 922.384 38.3 915.284 30.3 904.684 30.3C 897.684 30.3 892.984 33.2 889.484 38.7L 889.184 38.7L 889.184 31.7ZM 953.367 100.5C 960.967 100.5 967.567 98.7 971.867 94.7C 975.667 91.2 977.967 86.3 977.967 79.1L 977.967 31.7L 964.867 31.7L 964.867 37.1L 964.667 37.1C 961.567 32.8 956.867 30.3 950.467 30.3C 937.467 30.3 928.267 40.1 928.267 55.4C 928.267 70.9 939.467 79.9 950.867 79.9C 957.367 79.9 961.267 77.3 964.267 73.9L 964.567 73.9L 964.567 79.5C 964.567 86.5 960.867 90.2 953.167 90.2C 946.867 90.2 943.967 87.7 942.867 84.5L 929.367 84.5C 930.767 94.5 939.367 100.5 953.367 100.5ZM 953.167 69C 946.167 69 941.567 63.9 941.567 55.2C 941.567 46.6 946.167 41.2 953.067 41.2C 961.267 41.2 965.267 47.6 965.267 55.1C 965.267 62.7 961.767 69 953.167 69ZM 1027.54 84.6C 1043.64 84.6 1055.34 76.5 1055.34 62C 1055.34 46.6 1043.34 43.1 1028.64 39.9C 1018.04 37.6 1013.04 35.9 1013.04 30.1C 1013.04 25 1018.14 21.7 1025.94 21.7C 1033.34 21.7 1038.94 25.3 1039.74 32.5L 1053.64 32.5C 1052.54 18.1 1042.14 10.2 1026.04 10.2C 1010.14 10.2 998.636 17.5 998.636 31.6C 998.636 46.5 1010.34 49.9 1023.14 52.8C 1034.04 55.3 1040.84 56.7 1040.84 63.7C 1040.84 70.3 1034.34 72.9 1026.94 72.9C 1016.74 72.9 1011.84 69.5 1010.84 60.9L 996.636 60.9C 997.136 76 1008.14 84.6 1027.54 84.6ZM 1059.41 40.7L 1066.51 40.7L 1066.51 70.8C 1066.51 80.5 1073.81 83.1 1080.41 83.1C 1085.81 83.1 1088.91 82.9 1088.91 82.9L 1088.91 72.9C 1088.91 72.9 1086.61 73 1084.91 73C 1081.91 73 1079.81 71.7 1079.81 67.9L 1079.81 40.7L 1088.61 40.7L 1088.61 31.7L 1079.81 31.7L 1079.81 15.7L 1066.51 15.7L 1066.51 31.7L 1059.41 31.7L 1059.41 40.7ZM 1141.11 83L 1141.11 31.7L 1127.51 31.7L 1127.51 61.3C 1127.51 68.1 1123.61 72.9 1117.21 72.9C 1111.41 72.9 1108.71 69.6 1108.71 63.6L 1108.71 31.7L 1095.21 31.7L 1095.21 65.9C 1095.21 77.1 1101.61 84.4 1113.01 84.4C 1120.21 84.4 1124.21 81.7 1127.71 77L 1128.01 77L 1128.01 83L 1141.11 83ZM 1169.11 84.5C 1176.31 84.5 1181.41 81.2 1184.41 76.3L 1184.61 76.3L 1184.61 83L 1197.71 83L 1197.71 11.5L 1184.11 11.5L 1184.11 37.9L 1183.81 37.9C 1181.01 33.6 1176.51 30.3 1169.31 30.3C 1156.51 30.3 1147.41 41.4 1147.41 57.4C 1147.41 74 1156.21 84.5 1169.11 84.5ZM 1172.11 73.1C 1165.11 73.1 1161.21 67.3 1161.21 57.4C 1161.21 47.9 1165.01 41.3 1172.51 41.3C 1181.21 41.3 1184.41 47.9 1184.41 57.7C 1184.41 67.1 1180.21 73.1 1172.11 73.1ZM 1230.65 84.5C 1243.85 84.5 1251.95 76.8 1253.85 67.7L 1240.45 67.7C 1238.95 71.6 1235.85 74 1230.55 74C 1222.85 74 1218.45 69.1 1217.45 61.2L 1254.65 61.2C 1254.65 42.9 1245.85 30.3 1229.35 30.3C 1214.35 30.3 1204.05 42.1 1204.05 57.3C 1204.05 72.6 1213.65 84.5 1230.65 84.5ZM 1229.55 40.8C 1235.75 40.8 1240.05 45.3 1240.45 51.8L 1217.65 51.8C 1218.85 45.1 1222.35 40.8 1229.55 40.8ZM 1274.24 31.7L 1260.94 31.7L 1260.94 83L 1274.54 83L 1274.54 53.9C 1274.54 46.9 1278.94 42.1 1284.94 42.1C 1290.64 42.1 1293.84 46 1293.84 51.5L 1293.84 83L 1307.44 83L 1307.44 49.5C 1307.44 38.3 1300.34 30.3 1289.74 30.3C 1282.74 30.3 1278.04 33.2 1274.54 38.7L 1274.24 38.7L 1274.24 31.7ZM 1311.85 40.7L 1318.95 40.7L 1318.95 70.8C 1318.95 80.5 1326.25 83.1 1332.85 83.1C 1338.25 83.1 1341.35 82.9 1341.35 82.9L 1341.35 72.9C 1341.35 72.9 1339.05 73 1337.35 73C 1334.35 73 1332.25 71.7 1332.25 67.9L 1332.25 40.7L 1341.05 40.7L 1341.05 31.7L 1332.25 31.7L 1332.25 15.7L 1318.95 15.7L 1318.95 31.7L 1311.85 31.7L 1311.85 40.7ZM 33.1 204.2C 51.4 204.2 60.8 195.3 60.8 180L 60.8 131.5L 46.3 131.5L 46.3 179.8C 46.3 187.2 42 192.6 32.8 192.6C 23.1 192.6 19.4 187.4 19.4 180L 19.4 131.5L 4.9 131.5L 4.9 180C 4.9 195.5 14.6 204.2 33.1 204.2ZM 83.4227 151.7L 70.1227 151.7L 70.1227 203L 83.7227 203L 83.7227 173.9C 83.7227 166.9 88.1227 162.1 94.1227 162.1C 99.8227 162.1 103.023 166 103.023 171.5L 103.023 203L 116.623 203L 116.623 169.5C 116.623 158.3 109.523 150.3 98.9227 150.3C 91.9227 150.3 87.2227 153.2 83.7227 158.7L 83.4227 158.7L 83.4227 151.7ZM 125.005 203L 138.605 203L 138.605 151.7L 125.005 151.7L 125.005 203ZM 125.005 143.7L 138.605 143.7L 138.605 131.5L 125.005 131.5L 125.005 143.7ZM 160.969 203L 173.969 203L 191.869 151.7L 178.269 151.7L 169.869 178.3C 168.369 183.2 167.669 186.5 167.669 186.5L 167.469 186.5C 167.469 186.5 166.669 183.2 165.169 178.3L 156.969 151.7L 143.169 151.7L 160.969 203ZM 219.125 204.5C 232.325 204.5 240.425 196.8 242.325 187.7L 228.925 187.7C 227.425 191.6 224.325 194 219.025 194C 211.325 194 206.925 189.1 205.925 181.2L 243.125 181.2C 243.125 162.9 234.325 150.3 217.825 150.3C 202.825 150.3 192.525 162.1 192.525 177.3C 192.525 192.6 202.125 204.5 219.125 204.5ZM 218.025 160.8C 224.225 160.8 228.525 165.3 228.925 171.8L 206.125 171.8C 207.325 165.1 210.825 160.8 218.025 160.8ZM 262.52 151.7L 249.42 151.7L 249.42 203L 263.02 203L 263.02 178C 263.02 167.2 269.42 162.5 278.32 163.4L 278.62 163.4L 278.62 151.5C 277.82 151.2 276.92 151.1 275.42 151.1C 269.42 151.1 265.92 154.1 262.82 159.9L 262.52 159.9L 262.52 151.7ZM 305.278 204.5C 318.078 204.5 326.878 198.3 326.878 188C 326.878 176 317.378 173.6 308.778 171.8C 301.478 170.3 294.678 169.9 294.678 165.5C 294.678 161.8 298.178 159.8 303.478 159.8C 309.278 159.8 312.778 161.8 313.378 167.3L 325.678 167.3C 324.678 157 317.178 150.3 303.678 150.3C 291.978 150.3 282.778 155.6 282.778 166.7C 282.778 177.9 291.778 180.4 300.978 182.2C 307.978 183.6 314.478 184.1 314.478 189C 314.478 192.6 311.078 194.9 305.078 194.9C 298.978 194.9 294.778 192.3 293.878 186.4L 281.278 186.4C 282.078 197.3 290.378 204.5 305.278 204.5ZM 333.013 203L 346.613 203L 346.613 151.7L 333.013 151.7L 333.013 203ZM 333.013 143.7L 346.613 143.7L 346.613 131.5L 333.013 131.5L 333.013 143.7ZM 352.377 160.7L 359.477 160.7L 359.477 190.8C 359.477 200.5 366.777 203.1 373.377 203.1C 378.777 203.1 381.877 202.9 381.877 202.9L 381.877 192.9C 381.877 192.9 379.577 193 377.877 193C 374.877 193 372.777 191.7 372.777 187.9L 372.777 160.7L 381.577 160.7L 381.577 151.7L 372.777 151.7L 372.777 135.7L 359.477 135.7L 359.477 151.7L 352.377 151.7L 352.377 160.7ZM 390.656 219.8L 398.656 219.8C 409.056 219.8 412.856 215.7 416.756 204.3L 434.656 151.7L 420.956 151.7L 413.756 174.8C 412.156 179.5 410.756 186 410.756 186L 410.556 186C 410.556 186 408.856 179.5 407.256 174.8L 399.656 151.7L 385.356 151.7L 399.156 188.2C 402.056 196 403.056 199.3 403.056 202.1C 403.056 206.3 400.856 209.1 395.456 209.1L 390.656 209.1L 390.656 219.8ZM 475.575 204.5C 491.475 204.5 502.375 192.7 502.375 177.4C 502.375 162.1 491.475 150.3 475.575 150.3C 459.675 150.3 448.775 162.1 448.775 177.4C 448.775 192.7 459.675 204.5 475.575 204.5ZM 475.575 194.1C 467.175 194.1 462.575 187.4 462.575 177.4C 462.575 167.4 467.175 160.6 475.575 160.6C 483.875 160.6 488.575 167.4 488.575 177.4C 488.575 187.4 483.875 194.1 475.575 194.1ZM 504.72 161.1L 511.72 161.1L 511.72 203L 525.32 203L 525.32 161.1L 534.52 161.1L 534.52 151.7L 525.32 151.7L 525.32 147.9C 525.32 142.6 528.12 141.8 534.52 142.1L 534.52 131.6C 521.42 130.2 511.72 134.6 511.72 147.1L 511.72 151.7L 504.72 151.7L 504.72 161.1ZM 569.64 203L 583.04 203L 591.84 164.7C 593.04 159.5 594.14 152 594.14 152L 594.34 152C 594.34 152 595.64 159.5 596.84 164.7L 605.54 203L 619.04 203L 639.44 131.5L 625.14 131.5L 616.14 166.9C 614.74 173.1 612.64 182.6 612.64 182.6L 612.44 182.6C 612.44 182.6 610.64 173.6 609.14 167.3L 601.34 131.5L 587.34 131.5L 579.54 167.4C 578.04 173.7 576.24 182.6 576.24 182.6L 576.04 182.6C 576.04 182.6 574.34 173.1 572.94 167L 563.64 131.5L 548.84 131.5L 569.64 203ZM 671.173 203L 684.273 203L 684.273 202.5C 683.073 201.6 682.473 199.3 682.473 195.4L 682.473 169.3C 682.473 157.3 676.273 150.4 660.873 150.4C 645.873 150.4 639.173 158.3 638.773 167.3L 650.873 167.3C 651.273 162.4 654.373 160.1 660.773 160.1C 666.473 160.1 669.373 162.5 669.373 166.2C 669.373 170.1 665.473 170.8 656.973 172C 645.573 173.6 636.373 177.2 636.373 188.5C 636.373 198.7 643.773 204.2 654.273 204.2C 663.073 204.2 666.773 201.2 669.373 197.3L 669.573 197.3C 669.873 199.6 670.373 202 671.173 203ZM 657.573 194.7C 652.773 194.7 649.573 193 649.573 188.2C 649.573 183.4 653.073 181.8 660.173 180.2C 663.573 179.4 667.273 178.6 669.673 177.2L 669.673 184.9C 669.673 189.9 665.373 194.7 657.573 194.7ZM 687.142 160.7L 694.242 160.7L 694.242 190.8C 694.242 200.5 701.542 203.1 708.142 203.1C 713.542 203.1 716.642 202.9 716.642 202.9L 716.642 192.9C 716.642 192.9 714.342 193 712.642 193C 709.642 193 707.542 191.7 707.542 187.9L 707.542 160.7L 716.342 160.7L 716.342 151.7L 707.542 151.7L 707.542 135.7L 694.242 135.7L 694.242 151.7L 687.142 151.7L 687.142 160.7ZM 746.957 204.5C 760.157 204.5 768.257 196.8 770.157 187.7L 756.757 187.7C 755.257 191.6 752.157 194 746.857 194C 739.157 194 734.757 189.1 733.757 181.2L 770.957 181.2C 770.957 162.9 762.157 150.3 745.657 150.3C 730.657 150.3 720.357 162.1 720.357 177.3C 720.357 192.6 729.957 204.5 746.957 204.5ZM 745.857 160.8C 752.057 160.8 756.357 165.3 756.757 171.8L 733.957 171.8C 735.157 165.1 738.657 160.8 745.857 160.8ZM 790.352 151.7L 777.252 151.7L 777.252 203L 790.852 203L 790.852 178C 790.852 167.2 797.252 162.5 806.152 163.4L 806.452 163.4L 806.452 151.5C 805.652 151.2 804.752 151.1 803.252 151.1C 797.252 151.1 793.752 154.1 790.652 159.9L 790.352 159.9L 790.352 151.7ZM 812.51 203L 826.11 203L 826.11 131.5L 812.51 131.5L 812.51 203ZM 859.364 204.5C 875.264 204.5 886.164 192.7 886.164 177.4C 886.164 162.1 875.264 150.3 859.364 150.3C 843.464 150.3 832.564 162.1 832.564 177.4C 832.564 192.7 843.464 204.5 859.364 204.5ZM 859.364 194.1C 850.964 194.1 846.364 187.4 846.364 177.4C 846.364 167.4 850.964 160.6 859.364 160.6C 867.664 160.6 872.364 167.4 872.364 177.4C 872.364 187.4 867.664 194.1 859.364 194.1ZM 916.786 204.5C 932.686 204.5 943.586 192.7 943.586 177.4C 943.586 162.1 932.686 150.3 916.786 150.3C 900.886 150.3 889.986 162.1 889.986 177.4C 889.986 192.7 900.886 204.5 916.786 204.5ZM 916.786 194.1C 908.386 194.1 903.786 187.4 903.786 177.4C 903.786 167.4 908.386 160.6 916.786 160.6C 925.086 160.6 929.786 167.4 929.786 177.4C 929.786 187.4 925.086 194.1 916.786 194.1Z"/>
</defs>
</svg>
