<svg width="494" height="323" viewBox="0 0 494 323" version="1.1" xmlns="http://www.w3.org/2000/svg" xmlns:xlink="http://www.w3.org/1999/xlink">
<title>Music Section</title>
<desc>Created using Figma</desc>
<g id="Canvas" transform="translate(-2602 -2883)">
<g id="Music Section">
<g id="Rectangle 6">
<use xlink:href="#path0_fill" transform="translate(2603.77 2884.49)" fill="#FFFFFF"/>
<use xlink:href="#path1_stroke" transform="translate(2603.77 2884.49)" fill="#FF4081"/>
</g>
<g id="Music">
<use xlink:href="#path2_fill" transform="matrix(6.12323e-17 -1 1 6.12323e-17 2613.82 3194.95)"/>
</g>
</g>
</g>
<defs>
<path id="path0_fill" d="M 0 0L 490.81 0L 490.81 320.508L 0 320.508L 0 0Z"/>
<path id="path1_stroke" d="M 0 0L 0 -1L -1 -1L -1 0L 0 0ZM 490.81 0L 491.81 0L 491.81 -1L 490.81 -1L 490.81 0ZM 490.81 320.508L 490.81 321.508L 491.81 321.508L 491.81 320.508L 490.81 320.508ZM 0 320.508L -1 320.508L -1 321.508L 0 321.508L 0 320.508ZM 0 1L 490.81 1L 490.81 -1L 0 -1L 0 1ZM 489.81 0L 489.81 320.508L 491.81 320.508L 491.81 0L 489.81 0ZM 490.81 319.508L 0 319.508L 0 321.508L 490.81 321.508L 490.81 319.508ZM 1 320.508L 1 0L -1 0L -1 320.508L 1 320.508Z"/>
<path id="path2_fill" d="M 2.45 42L 10.4 42L 10.4 24.05C 10.4 22.6 10.25 16.85 10.25 16.85L 10.35 16.85C 10.35 16.85 11.6 22.25 12 23.55L 17.1 42L 24.4 42L 29.55 23.5C 29.95 22.2 31.2 16.85 31.2 16.85L 31.3 16.85C 31.3 16.85 31.15 22.55 31.15 24L 31.15 42L 39.25 42L 39.25 6.25L 27.25 6.25L 22.85 21.9C 22.25 24.15 20.85 30.05 20.85 30.05L 20.75 30.05C 20.75 30.05 19.35 24.15 18.7 21.9L 14.35 6.25L 2.45 6.25L 2.45 42ZM 51.4492 42.75C 54.9992 42.75 57.2492 41.35 59.0992 38.85L 59.2492 38.85L 59.2492 42L 67.0492 42L 67.0492 16.4L 58.8992 16.4L 58.8992 30.7C 58.8992 33.75 57.1992 35.85 54.3992 35.85C 51.7992 35.85 50.5492 34.3 50.5492 31.5L 50.5492 16.4L 42.4492 16.4L 42.4492 33.2C 42.4492 38.9 45.5492 42.75 51.4492 42.75ZM 80.8695 42.8C 87.5695 42.8 92.5195 39.9 92.5195 34.3C 92.5195 27.75 87.2195 26.6 82.7195 25.85C 79.4695 25.25 76.5695 25 76.5695 23.2C 76.5695 21.6 78.1195 20.85 80.1195 20.85C 82.3695 20.85 83.9195 21.55 84.2195 23.85L 91.7195 23.85C 91.3195 18.8 87.4195 15.65 80.1695 15.65C 74.1195 15.65 69.1195 18.45 69.1195 23.85C 69.1195 29.85 73.8695 31.05 78.3195 31.8C 81.7195 32.4 84.8195 32.65 84.8195 34.95C 84.8195 36.6 83.2695 37.5 80.8195 37.5C 78.1195 37.5 76.4195 36.25 76.1195 33.7L 68.4195 33.7C 68.6695 39.35 73.3695 42.8 80.8695 42.8ZM 94.1648 42L 102.315 42L 102.315 16.4L 94.1648 16.4L 94.1648 42ZM 94.1648 12.85L 102.315 12.85L 102.315 6.25L 94.1648 6.25L 94.1648 12.85ZM 117.675 42.8C 124.925 42.8 129.625 38.2 129.825 32.3L 122.025 32.3C 121.675 35.2 120.125 36.7 117.575 36.7C 114.075 36.7 112.325 33.8 112.325 29.25C 112.325 24.6 114.075 21.7 117.575 21.7C 119.875 21.7 121.275 23.2 121.775 25.5L 129.625 25.5C 128.875 19.75 124.425 15.7 117.475 15.7C 109.375 15.7 104.075 21.55 104.075 29.25C 104.075 36.95 109.425 42.8 117.675 42.8Z"/>
</defs>
</svg>
