<svg width="329" height="852" viewBox="0 0 329 852" version="1.1" xmlns="http://www.w3.org/2000/svg" xmlns:xlink="http://www.w3.org/1999/xlink">
<title>Social Section</title>
<desc>Created using Figma</desc>
<g id="Canvas" transform="translate(-2226 -2354)">
<g id="Social Section">
<g id="Rectangle 6">
<use xlink:href="#path0_fill" transform="translate(2227 2355)" fill="#FFFFFF"/>
<use xlink:href="#path1_stroke" transform="translate(2227 2355)" fill="#FF4081"/>
</g>
<g id="Social">
<use xlink:href="#path2_fill" transform="translate(2252.12 2365.05)"/>
</g>
</g>
</g>
<defs>
<path id="path0_fill" d="M 0 0L 326.537 0L 326.537 850L 0 850L 0 0Z"/>
<path id="path1_stroke" d="M 0 0L 0 -1L -1 -1L -1 0L 0 0ZM 326.537 0L 327.537 0L 327.537 -1L 326.537 -1L 326.537 0ZM 326.537 850L 326.537 851L 327.537 851L 327.537 850L 326.537 850ZM 0 850L -1 850L -1 851L 0 851L 0 850ZM 0 1L 326.537 1L 326.537 -1L 0 -1L 0 1ZM 325.537 0L 325.537 850L 327.537 850L 327.537 0L 325.537 0ZM 326.537 849L 0 849L 0 851L 326.537 851L 326.537 849ZM 1 850L 1 0L -1 0L -1 850L 1 850Z"/>
<path id="path2_fill" d="M 33.4 84.7C 49.9 84.7 62.7 76.4 62.7 61.4C 62.7 46.1 50.7 42 37.4 38.9C 26.7 36.5 21.2 35.3 21.2 30.3C 21.2 26.3 25.3 23.6 31.5 23.6C 38.1 23.6 42.3 26.7 43 32.2L 60.3 32.2C 59.6 17.2 47.6 10.2 32.1 10.2C 16.1 10.2 3.7 16.9 3.7 32.2C 3.7 47.2 16.8 51 29.2 53.9C 39 56.3 44.8 57.5 44.8 63.2C 44.8 68.6 39.1 70.7 33.3 70.7C 24.8 70.7 20.1 67.7 19.3 60.5L 1.5 60.5C 1.9 76.3 14.4 84.7 33.4 84.7ZM 92.4273 73C 85.3273 73 81.6273 66.8 81.6273 57.5C 81.6273 48.2 85.3273 41.9 92.4273 41.9C 99.5273 41.9 103.327 48.2 103.327 57.5C 103.327 66.8 99.5273 73 92.4273 73ZM 92.5273 84.6C 109.027 84.6 119.827 72.9 119.827 57.5C 119.827 42.1 109.027 30.4 92.5273 30.4C 76.1273 30.4 65.1273 42.1 65.1273 57.5C 65.1273 72.9 76.1273 84.6 92.5273 84.6ZM 148.237 84.6C 162.737 84.6 172.138 75.4 172.538 63.6L 156.938 63.6C 156.238 69.4 153.138 72.4 148.038 72.4C 141.038 72.4 137.537 66.6 137.537 57.5C 137.537 48.2 141.038 42.4 148.038 42.4C 152.637 42.4 155.438 45.4 156.438 50L 172.138 50C 170.638 38.5 161.738 30.4 147.838 30.4C 131.638 30.4 121.038 42.1 121.038 57.5C 121.038 72.9 131.738 84.6 148.237 84.6ZM 175.732 83L 192.032 83L 192.032 31.8L 175.732 31.8L 175.732 83ZM 175.732 24.7L 192.032 24.7L 192.032 11.5L 175.732 11.5L 175.732 24.7ZM 212.953 84.3C 220.653 84.3 225.153 81.6 228.153 77.3L 228.353 77.3C 228.753 79.9 229.253 81.9 230.053 83L 245.853 83L 245.853 82.3C 244.453 81.4 244.053 79.1 244.053 75L 244.053 49.2C 244.053 42.8 241.953 37.8 237.553 34.6C 233.853 31.8 228.653 30.4 220.953 30.4C 205.453 30.4 198.153 38.5 197.753 48L 212.753 48C 213.253 43.7 215.853 41.4 221.053 41.4C 225.953 41.4 228.053 43.6 228.053 46.9C 228.053 50.4 224.653 51.4 215.053 52.6C 204.453 54 195.453 57.4 195.453 68.7C 195.453 78.8 202.753 84.3 212.953 84.3ZM 218.153 73.9C 214.153 73.9 211.153 72.3 211.153 68.2C 211.153 64.3 213.753 62.7 220.053 61.3C 223.353 60.5 226.353 59.7 228.453 58.6L 228.453 64.7C 228.453 70.2 224.253 73.9 218.153 73.9ZM 250.055 83L 266.555 83L 266.555 11.5L 250.055 11.5L 250.055 83Z"/>
</defs>
</svg>
