<svg width="1035" height="482" viewBox="0 0 1035 482" version="1.1" xmlns="http://www.w3.org/2000/svg" xmlns:xlink="http://www.w3.org/1999/xlink">
<title>Projects Section</title>
<desc>Created using Figma</desc>
<g id="Canvas" transform="translate(-2602 -2354)">
<g id="Projects Section">
<g id="Rectangle 6">
<use xlink:href="#path0_fill" transform="translate(2603.77 2355)" fill="#FFFFFF"/>
<use xlink:href="#path1_stroke" transform="translate(2603.77 2355)" fill="#FF4081"/>
</g>
<g id="Projects">
<use xlink:href="#path2_fill" transform="matrix(6.12323e-17 -1 1 6.12323e-17 2607.79 2814.16)"/>
</g>
</g>
</g>
<defs>
<path id="path0_fill" d="M 0 0L 1031.86 0L 1031.86 479.255L 0 479.255L 0 0Z"/>
<path id="path1_stroke" d="M 0 0L 0 -1L -1 -1L -1 0L 0 0ZM 1031.86 0L 1032.86 0L 1032.86 -1L 1031.86 -1L 1031.86 0ZM 1031.86 479.255L 1031.86 480.255L 1032.86 480.255L 1032.86 479.255L 1031.86 479.255ZM 0 479.255L -1 479.255L -1 480.255L 0 480.255L 0 479.255ZM 0 1L 1031.86 1L 1031.86 -1L 0 -1L 0 1ZM 1030.86 0L 1030.86 479.255L 1032.86 479.255L 1032.86 0L 1030.86 0ZM 1031.86 478.255L 0 478.255L 0 480.255L 1031.86 480.255L 1031.86 478.255ZM 1 479.255L 1 0L -1 0L -1 479.255L 1 479.255Z"/>
<path id="path2_fill" d="M 4.9 83L 22.9 83L 22.9 59.1L 39.6 59.1C 54.3 59.1 63.8 49.4 63.8 35.7C 63.8 28.5 61.2 22.4 56.6 18.1C 52.2 13.9 45.8 11.5 37.1 11.5L 4.9 11.5L 4.9 83ZM 22.9 45.1L 22.9 26.4L 36 26.4C 42.3 26.4 46 29.9 46 35.6C 46 41.3 42.4 45.1 36 45.1L 22.9 45.1ZM 67.1344 83L 83.4344 83L 83.4344 60C 83.4344 48.9 89.8344 44 99.8344 45.4L 100.234 45.4L 100.234 31.4C 99.5344 31.1 98.5344 31 97.0344 31C 90.8344 31 86.6344 33.7 83.0344 39.8L 82.7344 39.8L 82.7344 31.8L 67.1344 31.8L 67.1344 83ZM 127.439 73C 120.339 73 116.639 66.8 116.639 57.5C 116.639 48.2 120.339 41.9 127.439 41.9C 134.539 41.9 138.339 48.2 138.339 57.5C 138.339 66.8 134.539 73 127.439 73ZM 127.539 84.6C 144.039 84.6 154.839 72.9 154.839 57.5C 154.839 42.1 144.039 30.4 127.539 30.4C 111.139 30.4 100.139 42.1 100.139 57.5C 100.139 72.9 111.139 84.6 127.539 84.6ZM 158.949 100.2C 163.849 100.2 167.849 99.1 170.749 96.2C 173.149 93.7 174.649 90.2 174.649 83.4L 174.649 31.8L 158.349 31.8L 158.349 82.6C 158.349 88.1 155.449 88.1 149.749 88.1L 149.749 99.4C 152.249 99.9 156.149 100.2 158.949 100.2ZM 158.349 24.7L 174.649 24.7L 174.649 11.5L 158.349 11.5L 158.349 24.7ZM 205.47 84.5C 211.97 84.5 217.17 82.8 221.47 79.8C 225.97 76.7 228.97 72.3 230.07 67.7L 214.17 67.7C 212.77 70.9 209.97 72.8 205.67 72.8C 198.97 72.8 195.17 68.5 194.17 61.6L 230.97 61.6C 231.07 51.2 228.07 42.3 221.97 36.7C 217.57 32.7 211.77 30.3 204.47 30.3C 188.87 30.3 178.17 42 178.17 57.3C 178.17 72.8 188.57 84.5 205.47 84.5ZM 194.27 51.9C 195.37 45.8 198.57 41.9 204.77 41.9C 210.07 41.9 213.87 45.8 214.47 51.9L 194.27 51.9ZM 259.327 84.6C 273.827 84.6 283.227 75.4 283.627 63.6L 268.027 63.6C 267.327 69.4 264.227 72.4 259.127 72.4C 252.127 72.4 248.627 66.6 248.627 57.5C 248.627 48.2 252.127 42.4 259.127 42.4C 263.727 42.4 266.527 45.4 267.527 50L 283.227 50C 281.727 38.5 272.827 30.4 258.927 30.4C 242.727 30.4 232.127 42.1 232.127 57.5C 232.127 72.9 242.827 84.6 259.327 84.6ZM 307.122 83.6C 311.522 83.6 314.622 83.2 316.022 82.8L 316.022 70.9C 315.422 70.9 313.822 71 312.422 71C 308.922 71 306.722 70 306.722 66L 306.722 42L 316.022 42L 316.022 31.8L 306.722 31.8L 306.722 15.6L 290.822 15.6L 290.822 31.8L 284.022 31.8L 284.022 42L 290.822 42L 290.822 69.5C 290.822 80.5 297.622 83.6 307.122 83.6ZM 342.657 84.6C 356.057 84.6 365.957 78.8 365.957 67.6C 365.957 54.5 355.357 52.2 346.357 50.7C 339.857 49.5 334.057 49 334.057 45.4C 334.057 42.2 337.157 40.7 341.157 40.7C 345.657 40.7 348.757 42.1 349.357 46.7L 364.357 46.7C 363.557 36.6 355.757 30.3 341.257 30.3C 329.157 30.3 319.157 35.9 319.157 46.7C 319.157 58.7 328.657 61.1 337.557 62.6C 344.357 63.8 350.557 64.3 350.557 68.9C 350.557 72.2 347.457 74 342.557 74C 337.157 74 333.757 71.5 333.157 66.4L 317.757 66.4C 318.257 77.7 327.657 84.6 342.657 84.6Z"/>
</defs>
</svg>
