<svg width="494" height="323" viewBox="0 0 494 323" version="1.1" xmlns="http://www.w3.org/2000/svg" xmlns:xlink="http://www.w3.org/1999/xlink">
<title>Photo Section</title>
<desc>Created using Figma</desc>
<g id="Canvas" transform="translate(-3143 -2883)">
<g id="Photo Section">
<g id="Rectangle 6">
<use xlink:href="#path0_fill" transform="translate(3144.82 2884.49)" fill="#FFFFFF"/>
<use xlink:href="#path1_stroke" transform="translate(3144.82 2884.49)" fill="#FF4081"/>
</g>
<g id="Photography">
<use xlink:href="#path2_fill" transform="matrix(6.12323e-17 -1 1 6.12323e-17 3154.36 3194.95)"/>
</g>
</g>
</g>
<defs>
<path id="path0_fill" d="M 0 0L 490.81 0L 490.81 320.508L 0 320.508L 0 0Z"/>
<path id="path1_stroke" d="M 0 0L 0 -1L -1 -1L -1 0L 0 0ZM 490.81 0L 491.81 0L 491.81 -1L 490.81 -1L 490.81 0ZM 490.81 320.508L 490.81 321.508L 491.81 321.508L 491.81 320.508L 490.81 320.508ZM 0 320.508L -1 320.508L -1 321.508L 0 321.508L 0 320.508ZM 0 1L 490.81 1L 490.81 -1L 0 -1L 0 1ZM 489.81 0L 489.81 320.508L 491.81 320.508L 491.81 0L 489.81 0ZM 490.81 319.508L 0 319.508L 0 321.508L 490.81 321.508L 490.81 319.508ZM 1 320.508L 1 0L -1 0L -1 320.508L 1 320.508Z"/>
<path id="path2_fill" d="M 2.45 42L 11.45 42L 11.45 30.05L 19.8 30.05C 27.15 30.05 31.9 25.2 31.9 18.35C 31.9 14.75 30.6 11.7 28.3 9.55C 26.1 7.45 22.9 6.25 18.55 6.25L 2.45 6.25L 2.45 42ZM 11.45 23.05L 11.45 13.7L 18 13.7C 21.15 13.7 23 15.45 23 18.3C 23 21.15 21.2 23.05 18 23.05L 11.45 23.05ZM 33.5672 42L 41.7172 42L 41.7172 27.85C 41.7172 24.7 43.5172 22.45 46.2172 22.45C 48.8672 22.45 50.2172 24.3 50.2172 27L 50.2172 42L 58.3672 42L 58.3672 25.35C 58.3672 19.65 55.0672 15.65 49.4672 15.65C 45.9172 15.65 43.7172 17.1 41.8672 19.55L 41.7172 19.55L 41.7172 6.25L 33.5672 6.25L 33.5672 42ZM 73.5828 37C 70.0328 37 68.1828 33.9 68.1828 29.25C 68.1828 24.6 70.0328 21.45 73.5828 21.45C 77.1328 21.45 79.0328 24.6 79.0328 29.25C 79.0328 33.9 77.1328 37 73.5828 37ZM 73.6328 42.8C 81.8828 42.8 87.2828 36.95 87.2828 29.25C 87.2828 21.55 81.8828 15.7 73.6328 15.7C 65.4328 15.7 59.9328 21.55 59.9328 29.25C 59.9328 36.95 65.4328 42.8 73.6328 42.8ZM 98.6996 42.3C 100.9 42.3 102.45 42.1 103.15 41.9L 103.15 35.95C 102.85 35.95 102.05 36 101.35 36C 99.5996 36 98.4996 35.5 98.4996 33.5L 98.4996 21.5L 103.15 21.5L 103.15 16.4L 98.4996 16.4L 98.4996 8.3L 90.5496 8.3L 90.5496 16.4L 87.1496 16.4L 87.1496 21.5L 90.5496 21.5L 90.5496 35.25C 90.5496 40.75 93.9496 42.3 98.6996 42.3ZM 117.335 37C 113.785 37 111.935 33.9 111.935 29.25C 111.935 24.6 113.785 21.45 117.335 21.45C 120.885 21.45 122.785 24.6 122.785 29.25C 122.785 33.9 120.885 37 117.335 37ZM 117.385 42.8C 125.635 42.8 131.035 36.95 131.035 29.25C 131.035 21.55 125.635 15.7 117.385 15.7C 109.185 15.7 103.685 21.55 103.685 29.25C 103.685 36.95 109.185 42.8 117.385 42.8ZM 144.69 50.85C 148.49 50.85 151.84 50 154.09 48C 156.14 46.15 157.49 43.35 157.49 39.5L 157.49 16.4L 149.69 16.4L 149.69 19.15L 149.59 19.15C 148.09 17 145.79 15.65 142.39 15.65C 136.04 15.65 131.64 20.95 131.64 28.45C 131.64 36.3 136.99 40.6 142.74 40.6C 145.84 40.6 147.79 39.35 149.29 37.65L 149.49 37.65L 149.49 40.2C 149.49 43.3 148.04 45.1 144.59 45.1C 141.89 45.1 140.54 43.95 140.09 42.6L 132.19 42.6C 132.99 47.95 137.64 50.85 144.69 50.85ZM 144.64 34.55C 141.59 34.55 139.59 32.05 139.59 28.2C 139.59 24.3 141.59 21.8 144.64 21.8C 148.04 21.8 149.84 24.7 149.84 28.15C 149.84 31.75 148.19 34.55 144.64 34.55ZM 160.403 42L 168.553 42L 168.553 30.5C 168.553 24.95 171.753 22.5 176.753 23.2L 176.953 23.2L 176.953 16.2C 176.603 16.05 176.103 16 175.353 16C 172.253 16 170.153 17.35 168.353 20.4L 168.203 20.4L 168.203 16.4L 160.403 16.4L 160.403 42ZM 185.361 42.65C 189.211 42.65 191.461 41.3 192.961 39.15L 193.061 39.15C 193.261 40.45 193.511 41.45 193.911 42L 201.811 42L 201.811 41.65C 201.111 41.2 200.911 40.05 200.911 38L 200.911 25.1C 200.911 21.9 199.861 19.4 197.661 17.8C 195.811 16.4 193.211 15.7 189.361 15.7C 181.611 15.7 177.961 19.75 177.761 24.5L 185.261 24.5C 185.511 22.35 186.811 21.2 189.411 21.2C 191.861 21.2 192.911 22.3 192.911 23.95C 192.911 25.7 191.211 26.2 186.411 26.8C 181.111 27.5 176.611 29.2 176.611 34.85C 176.611 39.9 180.261 42.65 185.361 42.65ZM 187.961 37.45C 185.961 37.45 184.461 36.65 184.461 34.6C 184.461 32.65 185.761 31.85 188.911 31.15C 190.561 30.75 192.061 30.35 193.111 29.8L 193.111 32.85C 193.111 35.6 191.011 37.45 187.961 37.45ZM 203.862 50.45L 212.012 50.45L 212.012 39.35L 212.112 39.35C 213.712 41.5 216.062 42.8 219.362 42.8C 226.062 42.8 230.512 37.5 230.512 29.2C 230.512 21.5 226.362 15.65 219.562 15.65C 216.062 15.65 213.562 17.2 211.812 19.5L 211.662 19.5L 211.662 16.4L 203.862 16.4L 203.862 50.45ZM 217.262 36.5C 213.762 36.5 211.762 33.65 211.762 29.5C 211.762 25.35 213.562 22.2 217.112 22.2C 220.612 22.2 222.262 25.1 222.262 29.5C 222.262 33.85 220.362 36.5 217.262 36.5ZM 232.257 42L 240.407 42L 240.407 27.85C 240.407 24.7 242.207 22.45 244.907 22.45C 247.557 22.45 248.907 24.3 248.907 27L 248.907 42L 257.057 42L 257.057 25.35C 257.057 19.65 253.757 15.65 248.157 15.65C 244.607 15.65 242.407 17.1 240.557 19.55L 240.407 19.55L 240.407 6.25L 232.257 6.25L 232.257 42ZM 260.134 50.45L 265.434 50.45C 270.584 50.45 273.034 48.35 275.084 42.35L 283.934 16.4L 275.784 16.4L 272.434 27.3C 271.634 29.8 270.934 33.2 270.934 33.2L 270.834 33.2C 270.834 33.2 270.034 29.8 269.234 27.3L 265.784 16.4L 257.184 16.4L 264.734 36.1C 265.784 38.8 266.284 40.3 266.284 41.4C 266.284 43.15 265.334 44.1 262.934 44.1L 260.134 44.1L 260.134 50.45Z"/>
</defs>
</svg>
